<?xml version="1.0" encoding="iso-8859-1"?>
<!-- Generator: Adobe Illustrator 19.0.0, SVG Export Plug-In . SVG Version: 6.00 Build 0)  -->
<svg version="1.1" id="Capa_1" xmlns="http://www.w3.org/2000/svg" xmlns:xlink="http://www.w3.org/1999/xlink" x="0px" y="0px"
	 viewBox="0 0 512 512" style="enable-background:new 0 0 512 512;" xml:space="preserve">
<g>
	<g>
		<path d="M414.047,437.896c-13.255-13.256-34.825-13.256-48.082,0c-8.537,8.537-11.567,20.521-9.108,31.513
			C325.254,484.391,291.354,492,256,492C125.869,492,20,386.131,20,256c0-61.345,23.421-119.461,65.95-163.645
			c3.83-3.979,3.709-10.31-0.27-14.14c-3.979-3.83-10.311-3.709-14.14,0.271C25.407,126.415,0,189.457,0,256
			c0,68.38,26.629,132.667,74.981,181.02C123.333,485.371,187.62,512,256,512c38.872,0,76.132-8.492,110.829-25.199
			c6.511,6.075,14.842,9.12,23.177,9.12c8.707,0,17.413-3.313,24.041-9.941C427.303,472.723,427.303,451.153,414.047,437.896z
			 M399.906,471.837c-5.458,5.458-14.341,5.458-19.799,0c-5.459-5.458-5.459-14.341,0-19.799c2.729-2.729,6.314-4.094,9.9-4.094
			c3.584,0,7.17,1.364,9.899,4.094C405.364,457.496,405.364,466.379,399.906,471.837z"/>
	</g>
</g>
<g>
	<g>
		<path d="M493.469,351.767C505.76,321.354,512,289.18,512,256c0-56.44-18.814-111.544-53.116-156.107
			c8.078-13.102,6.453-30.536-4.894-41.884c-13.256-13.255-34.826-13.257-48.083,0c-13.256,13.257-13.256,34.827,0,48.084
			c6.628,6.628,15.335,9.941,24.042,9.941c4.731,0,9.459-0.987,13.857-2.944C474.939,153.992,492,204.388,492,256
			c0,30.081-5.564,59.253-16.515,86.861c-10.415-1.672-21.462,1.489-29.474,9.5c-13.256,13.257-13.256,34.827,0,48.084
			c6.628,6.628,15.334,9.941,24.041,9.941s17.414-3.313,24.042-9.941c13.256-13.257,13.256-34.827,0-48.084
			C493.89,352.157,493.678,351.965,493.469,351.767z M439.848,91.951c-0.044,0.044-0.092,0.08-0.136,0.124
			c-0.004,0.003-0.008,0.005-0.011,0.008c-0.087,0.072-0.163,0.151-0.247,0.225c-5.484,5.084-14.073,4.976-19.405-0.357
			c-5.458-5.458-5.458-14.341,0-19.799c2.73-2.729,6.314-4.094,9.9-4.094c3.585,0,7.17,1.364,9.899,4.094
			C445.306,77.61,445.306,86.493,439.848,91.951z M479.953,386.303c-5.458,5.458-14.34,5.46-19.799,0
			c-5.458-5.458-5.458-14.341,0-19.799c2.729-2.729,6.314-4.094,9.9-4.094c2.065,0,4.125,0.469,6.027,1.375
			c0.301,0.178,0.613,0.343,0.938,0.491c1.048,0.601,2.04,1.334,2.934,2.228C485.412,371.962,485.412,380.845,479.953,386.303z"/>
	</g>
</g>
<g>
	<g>
		<path d="M362.133,9.958c-12.308-12.308-31.781-13.18-45.114-2.632C297.148,2.468,276.636,0,256,0
			c-40.958,0-80.093,9.385-116.319,27.894c-4.918,2.513-6.868,8.537-4.355,13.455c1.768,3.461,5.275,5.452,8.913,5.452
			c1.531,0,3.085-0.353,4.542-1.097C182.163,28.648,218.236,20,256,20c16.624,0,33.156,1.737,49.278,5.158
			c-3.039,11.357-0.122,23.99,8.772,32.884c6.628,6.628,15.334,9.941,24.042,9.941c8.707,0,17.413-3.313,24.041-9.941
			C375.389,44.785,375.389,23.215,362.133,9.958z M347.99,43.9c-5.458,5.458-14.341,5.458-19.799,0
			c-5.459-5.458-5.459-14.341,0-19.799c2.73-2.73,6.315-4.094,9.9-4.094c3.584,0,7.17,1.364,9.899,4.094
			C353.448,29.559,353.448,38.442,347.99,43.9z"/>
	</g>
</g>
<g>
	<g>
		<path d="M117.507,52.564c-3.24-4.473-9.491-5.473-13.965-2.234c-0.023,0.018-0.083,0.061-0.118,0.087
			c-4.445,3.246-5.432,9.479-2.201,13.94c1.956,2.702,5.009,4.136,8.108,4.136c2.033,0,4.084-0.618,5.857-1.901
			c0.03-0.022,0.055-0.04,0.085-0.063C119.746,63.29,120.746,57.038,117.507,52.564z"/>
	</g>
</g>
<g>
	<g>
		<path d="M340,162H172c-5.523,0-10,4.478-10,10v168c0,5.522,4.477,10,10,10h168c5.523,0,10-4.478,10-10V172
			C350,166.478,345.523,162,340,162z M330,330H182V182h148V330z"/>
	</g>
</g>
<g>
	<g>
		<path d="M419,242c5.523,0,10-4.478,10-10c0-5.522-4.477-10-10-10h-29v-28h29c5.523,0,10-4.478,10-10c0-5.522-4.477-10-10-10h-29
			v-42c0-5.522-4.477-10-10-10h-42V93c0-5.522-4.477-10-10-10s-10,4.478-10,10v29h-28V93c0-5.522-4.477-10-10-10s-10,4.478-10,10v29
			h-28V93c0-5.522-4.477-10-10-10s-10,4.478-10,10v29h-28V93c0-5.522-4.477-10-10-10s-10,4.478-10,10v29h-42
			c-5.523,0-10,4.478-10,10v42H93c-5.523,0-10,4.478-10,10c0,5.522,4.477,10,10,10h29v28H93c-5.523,0-10,4.478-10,10
			c0,5.522,4.477,10,10,10h29v28H93c-5.523,0-10,4.478-10,10c0,5.522,4.477,10,10,10h29v28H93c-5.523,0-10,4.478-10,10
			c0,5.522,4.477,10,10,10h29v42c0,5.522,4.477,10,10,10h42v29c0,5.522,4.477,10,10,10s10-4.478,10-10v-29h28v29
			c0,5.522,4.477,10,10,10s10-4.478,10-10v-29h28v29c0,5.522,4.477,10,10,10s10-4.478,10-10v-29h28v29c0,5.522,4.477,10,10,10
			s10-4.478,10-10v-29h42c5.523,0,10-4.478,10-10v-42h29c5.523,0,10-4.478,10-10c0-5.522-4.477-10-10-10h-29v-28h29
			c5.523,0,10-4.478,10-10c0-5.522-4.477-10-10-10h-29v-28H419z M370,370H142V142h228V370z"/>
	</g>
</g>
<g>
	<g>
		<path d="M296,206h-41.195c-5.523,0-10,4.478-10,10c0,5.522,4.477,10,10,10H296c5.523,0,10-4.478,10-10
			C306,210.478,301.523,206,296,206z"/>
	</g>
</g>
<g>
	<g>
		<path d="M217.74,208.93c-1.86-1.86-4.44-2.93-7.07-2.93c-2.64,0-5.21,1.069-7.07,2.93c-1.87,1.86-2.93,4.44-2.93,7.07
			s1.06,5.21,2.93,7.069c1.86,1.861,4.44,2.931,7.07,2.931s5.21-1.07,7.07-2.931c1.86-1.859,2.93-4.439,2.93-7.069
			S219.6,210.79,217.74,208.93z"/>
	</g>
</g>
<g>
	<g>
		<path d="M296,246h-85.333c-5.523,0-10,4.478-10,10c0,5.522,4.477,10,10,10H296c5.523,0,10-4.478,10-10
			C306,250.478,301.523,246,296,246z"/>
	</g>
</g>
<g>
	<g>
		<path d="M217.74,288.93c-1.86-1.86-4.44-2.93-7.07-2.93s-5.21,1.069-7.08,2.93c-1.86,1.86-2.92,4.44-2.92,7.07
			s1.06,5.21,2.92,7.069c1.87,1.86,4.45,2.931,7.08,2.931s5.21-1.07,7.07-2.931c1.86-1.859,2.93-4.439,2.93-7.069
			S219.6,290.79,217.74,288.93z"/>
	</g>
</g>
<g>
	<g>
		<path d="M258.93,288.93c-1.86-1.861-4.44-2.93-7.07-2.93s-5.21,1.069-7.07,2.93c-1.86,1.86-2.93,4.44-2.93,7.07
			s1.07,5.21,2.93,7.069c1.86,1.86,4.44,2.931,7.07,2.931c2.64,0,5.21-1.07,7.07-2.931c1.86-1.859,2.93-4.439,2.93-7.069
			C261.86,293.359,260.79,290.79,258.93,288.93z"/>
	</g>
</g>
<g>
	<g>
		<path d="M303.07,288.93c-1.86-1.86-4.44-2.93-7.07-2.93s-5.21,1.069-7.07,2.93c-1.86,1.86-2.93,4.43-2.93,7.07
			c0,2.63,1.07,5.21,2.93,7.069c1.86,1.86,4.44,2.931,7.07,2.931s5.21-1.07,7.07-2.931c1.86-1.859,2.93-4.439,2.93-7.069
			C306,293.359,304.93,290.79,303.07,288.93z"/>
	</g>
</g>
<g>
</g>
<g>
</g>
<g>
</g>
<g>
</g>
<g>
</g>
<g>
</g>
<g>
</g>
<g>
</g>
<g>
</g>
<g>
</g>
<g>
</g>
<g>
</g>
<g>
</g>
<g>
</g>
<g>
</g>
</svg>
